<svg width="21" height="21" viewBox="0 0 21 21" fill="none" xmlns="http://www.w3.org/2000/svg">
<path fill-rule="evenodd" clip-rule="evenodd" d="M10.815 0.300293C13.245 0.300293 13.599 0.313293 14.623 0.360293C15.687 0.409293 16.414 0.578293 17.05 0.825293C17.7175 1.07617 18.3222 1.46965 18.822 1.97829C19.3306 2.47807 19.7241 3.08279 19.975 3.75029C20.222 4.38629 20.391 5.11329 20.44 6.17729C20.488 7.24429 20.5 7.58429 20.5 10.3003V10.3803C20.5 13.0233 20.488 13.3673 20.44 14.4233C20.391 15.4873 20.222 16.2143 19.975 16.8503C19.7241 17.5178 19.3306 18.1225 18.822 18.6223C18.3222 19.1309 17.7175 19.5244 17.05 19.7753C16.414 20.0223 15.687 20.1913 14.623 20.2403C13.556 20.2883 13.216 20.3003 10.5 20.3003H10.42C7.777 20.3003 7.433 20.2883 6.377 20.2403C5.313 20.1913 4.586 20.0223 3.95 19.7753C3.2825 19.5244 2.67777 19.1309 2.178 18.6223C1.66936 18.1225 1.27587 17.5178 1.025 16.8503C0.778 16.2143 0.609 15.4873 0.56 14.4233C0.513 13.3993 0.5 13.0443 0.5 10.6153V9.98529C0.5 7.55529 0.513 7.20129 0.56 6.17729C0.609 5.11329 0.778 4.38629 1.025 3.75029C1.27587 3.08279 1.66936 2.47807 2.178 1.97829C2.67777 1.46965 3.2825 1.07617 3.95 0.825293C4.586 0.578293 5.313 0.409293 6.377 0.360293C7.401 0.313293 7.756 0.300293 10.185 0.300293H10.815ZM10.734 2.10229H10.266C7.81 2.10229 7.482 2.11329 6.459 2.16029C5.484 2.20529 4.955 2.36729 4.602 2.50429C4.135 2.68629 3.802 2.90229 3.452 3.25229C3.102 3.60229 2.886 3.93529 2.704 4.40229C2.567 4.75529 2.404 5.28429 2.36 6.25929C2.313 7.28229 2.302 7.61029 2.302 10.0663V10.5343C2.302 12.9903 2.313 13.3183 2.36 14.3413C2.405 15.3163 2.567 15.8453 2.704 16.1983C2.886 16.6643 3.103 16.9983 3.452 17.3483C3.802 17.6983 4.135 17.9143 4.602 18.0963C4.955 18.2333 5.484 18.3963 6.459 18.4403C7.513 18.4883 7.829 18.4983 10.5 18.4983H10.58C13.177 18.4983 13.497 18.4883 14.54 18.4403C15.516 18.3953 16.045 18.2333 16.398 18.0963C16.864 17.9143 17.198 17.6983 17.548 17.3483C17.898 16.9983 18.114 16.6653 18.296 16.1983C18.433 15.8453 18.596 15.3163 18.64 14.3413C18.688 13.2863 18.698 12.9713 18.698 10.3003V10.2203C18.698 7.62329 18.688 7.30329 18.64 6.26029C18.595 5.28429 18.433 4.75529 18.296 4.40229C18.1358 3.96786 17.8802 3.57489 17.548 3.25229C17.2254 2.92015 16.8324 2.66455 16.398 2.50429C16.045 2.36729 15.516 2.20429 14.541 2.16029C13.518 2.11329 13.19 2.10229 10.734 2.10229ZM10.5 5.16529C11.1743 5.16529 11.8421 5.29811 12.4651 5.55617C13.0881 5.81423 13.6542 6.19247 14.131 6.6693C14.6078 7.14613 14.9861 7.71221 15.2441 8.33521C15.5022 8.95822 15.635 9.62596 15.635 10.3003C15.635 10.9746 15.5022 11.6424 15.2441 12.2654C14.9861 12.8884 14.6078 13.4545 14.131 13.9313C13.6542 14.4081 13.0881 14.7864 12.4651 15.0444C11.8421 15.3025 11.1743 15.4353 10.5 15.4353C9.13811 15.4353 7.83201 14.8943 6.86901 13.9313C5.90601 12.9683 5.365 11.6622 5.365 10.3003C5.365 8.93841 5.90601 7.6323 6.86901 6.6693C7.83201 5.7063 9.13811 5.16529 10.5 5.16529ZM10.5 6.96729C9.61603 6.96729 8.76827 7.31845 8.14321 7.94351C7.51815 8.56857 7.167 9.41633 7.167 10.3003C7.167 11.1843 7.51815 12.032 8.14321 12.6571C8.76827 13.2821 9.61603 13.6333 10.5 13.6333C11.384 13.6333 12.2317 13.2821 12.8568 12.6571C13.4818 12.032 13.833 11.1843 13.833 10.3003C13.833 9.41633 13.4818 8.56857 12.8568 7.94351C12.2317 7.31845 11.384 6.96729 10.5 6.96729ZM15.838 3.76229C16.1563 3.76229 16.4615 3.88872 16.6865 4.11376C16.9116 4.33881 17.038 4.64403 17.038 4.96229C17.038 5.28055 16.9116 5.58578 16.6865 5.81082C16.4615 6.03586 16.1563 6.16229 15.838 6.16229C15.5197 6.16229 15.2145 6.03586 14.9895 5.81082C14.7644 5.58578 14.638 5.28055 14.638 4.96229C14.638 4.64403 14.7644 4.33881 14.9895 4.11376C15.2145 3.88872 15.5197 3.76229 15.838 3.76229Z" fill="#AFB9C9"/>
</svg>
