<svg width="422" height="225" viewBox="0 0 422 225" fill="none" xmlns="http://www.w3.org/2000/svg">
<g clip-path="url(#clip0_4084_1085)">
<path d="M96.2399 59.47H80.7899C79.2623 59.47 77.7972 60.0769 76.717 61.1571C75.6368 62.2373 75.0299 63.7023 75.0299 65.23V96.15C75.0352 97.6127 74.4809 99.022 73.4807 100.089C72.4804 101.156 71.1099 101.801 69.6499 101.89H69.3999C67.2732 102.003 64.7066 102.06 61.6999 102.06C56.7034 102.17 51.7424 101.195 47.1599 99.2C43.117 97.39 39.56 94.6486 36.7799 91.2C33.9033 87.5233 31.7857 83.3118 30.5499 78.81C29.1069 73.6012 28.4066 68.2147 28.4699 62.81C28.4699 50.6833 31.2666 41.1267 36.8599 34.14C42.4532 27.1533 51.5399 23.66 64.1199 23.66C69.4158 23.5775 74.6953 24.2715 79.7899 25.72C82.3799 26.51 84.7899 27.36 87.0799 28.3C87.7971 28.5919 88.5661 28.7355 89.3403 28.7219C90.1146 28.7084 90.8781 28.5381 91.5846 28.2212C92.2912 27.9044 92.9263 27.4476 93.4514 26.8785C93.9765 26.3094 94.3808 25.6397 94.6399 24.91L98.6399 13.86C99.1204 12.5312 99.0919 11.0716 98.5602 9.76245C98.0284 8.45334 97.0309 7.38738 95.7599 6.77001V6.77001C93.1347 5.55382 90.4159 4.55059 87.6299 3.77001C83.7642 2.66053 79.8333 1.79218 75.8599 1.17C70.7922 0.379962 65.6687 0.00206802 60.5399 0.0400115C52.5351 -0.0130465 44.588 1.39675 37.0899 4.2C29.8944 6.84517 23.3455 10.9941 17.8799 16.37C12.3073 21.9758 7.94696 28.6678 5.06991 36.03C1.96324 43.77 0.40658 52.6633 0.399913 62.71C0.247384 71.7237 1.68261 80.6939 4.63991 89.21C7.19769 96.5178 11.2892 103.194 16.6399 108.79C21.9299 114.165 28.343 118.304 35.4199 120.91C43.2632 123.771 51.5618 125.181 59.9099 125.07C68.7862 125.212 77.6551 124.485 86.3899 122.9C91.0566 121.967 94.8732 121.067 97.8399 120.2C99.0324 119.85 100.079 119.123 100.824 118.128C101.568 117.132 101.971 115.923 101.97 114.68V65.18C101.957 63.6662 101.348 62.2185 100.276 61.1499C99.2036 60.0813 97.7537 59.4778 96.2399 59.47V59.47Z" fill="#00FFE0"/>
<path d="M252.46 29.17C252.04 24.99 251.607 20.99 251.16 17.17C250.94 15.2367 250.713 13.3567 250.48 11.53C250.35 10.53 250.22 9.46 250.08 8.45C250.08 8.06 249.98 7.68 249.93 7.3L249.78 6.14999C249.752 5.94367 249.709 5.73977 249.65 5.54001C249.638 5.48861 249.621 5.4384 249.6 5.39C249.581 5.31857 249.558 5.24843 249.53 5.18001C249.451 4.98018 249.357 4.78634 249.25 4.60001C249.138 4.41233 249.015 4.23195 248.88 4.06C248.802 3.96204 248.718 3.86856 248.63 3.78C248.282 3.4171 247.872 3.1191 247.42 2.89999C246.841 2.61476 246.205 2.46758 245.56 2.47H227.21C226.439 2.46891 225.683 2.67781 225.022 3.07423C224.362 3.47066 223.822 4.03962 223.46 4.72C221.667 8.05333 219.667 12.0067 217.46 16.58C215.42 20.78 213.317 25.24 211.15 29.96L208.96 34.76C208.22 36.3867 207.483 38.0267 206.75 39.68C206.01 41.33 205.28 42.98 204.55 44.68C203.09 48.0133 201.637 51.3833 200.19 54.79L195.95 64.79C195.623 65.5589 195.077 66.2147 194.38 66.6756C193.683 67.1365 192.866 67.3823 192.03 67.3823C191.194 67.3823 190.377 67.1365 189.68 66.6756C188.983 66.2147 188.437 65.5589 188.11 64.79L183.87 54.79C180.97 47.9767 178.047 41.31 175.1 34.79C172.153 28.27 169.317 22.21 166.59 16.61C164.383 12.07 162.383 8.11667 160.59 4.75C160.227 4.06883 159.685 3.49948 159.022 3.10307C158.36 2.70667 157.602 2.49818 156.83 2.5H137.29C136.642 2.49748 136.002 2.64464 135.42 2.93001C134.972 3.15172 134.566 3.44946 134.22 3.81C134.131 3.89856 134.048 3.99204 133.97 4.09C133.816 4.28484 133.679 4.49224 133.56 4.71001C133.493 4.82157 133.436 4.93866 133.39 5.06C133.39 5.18 133.29 5.3 133.25 5.42C133.169 5.66787 133.109 5.9221 133.07 6.18001C132.59 9.68001 132.127 13.3467 131.68 17.18C131.46 19.1 131.24 21.0633 131.02 23.07C130.8 25.07 130.587 27.12 130.38 29.22C130.14 31.6867 129.903 34.18 129.67 36.7C129.503 38.5867 129.333 40.49 129.16 42.41C128.667 48.1633 128.21 54.0433 127.79 60.05C127.603 62.7167 127.417 65.3833 127.23 68.05C126.69 76.05 126.183 84.0867 125.71 92.16C125.443 96.6867 125.19 101.103 124.95 105.41C124.71 109.717 124.49 113.91 124.29 117.99C124.275 118.183 124.275 118.377 124.29 118.57C124.303 118.738 124.327 118.905 124.36 119.07C124.556 120.03 125.079 120.892 125.839 121.51C126.599 122.128 127.55 122.464 128.53 122.46H146.89C147.449 122.462 148.003 122.353 148.52 122.14C148.768 122.035 149.005 121.908 149.23 121.76C149.457 121.616 149.668 121.448 149.86 121.26C150.655 120.493 151.118 119.444 151.15 118.34C151.35 111.88 151.587 105.113 151.86 98.04C151.973 95.2 152.087 92.3167 152.2 89.39C152.26 87.93 152.33 86.45 152.39 84.96C152.47 83 152.557 81.0367 152.65 79.07C152.943 73.1767 153.277 67.26 153.65 61.32C153.69 60.5928 153.914 59.8876 154.3 59.27C154.442 59.0444 154.609 58.8363 154.8 58.65C155.16 58.2736 155.587 57.9683 156.06 57.75C156.294 57.6352 156.539 57.5415 156.79 57.47C157.165 57.3704 157.552 57.32 157.94 57.32C158.522 57.3154 159.098 57.4347 159.63 57.67C159.812 57.742 159.986 57.8324 160.15 57.94C160.406 58.1039 160.644 58.295 160.86 58.51C161.086 58.7414 161.287 58.9961 161.46 59.27C161.58 59.4657 161.687 59.6696 161.78 59.88C164.287 65.68 166.767 71.4767 169.22 77.27C171.673 83.0633 174.04 88.6033 176.32 93.89C178.1 98.01 179.67 101.677 181.03 104.89C181.103 105.062 181.187 105.228 181.28 105.39L181.38 105.54C181.581 105.86 181.827 106.149 182.11 106.4C182.268 106.538 182.435 106.665 182.61 106.78C181.74 102.122 181.819 97.3354 182.842 92.7082C183.866 88.081 185.813 83.7079 188.566 79.8508C191.319 75.9938 194.823 72.7321 198.867 70.261C202.911 67.79 207.411 66.1605 212.1 65.47C217.652 59.4429 224.843 55.168 232.79 53.17C238.49 47.2053 245.597 42.7693 253.46 40.27C253.16 36.51 252.827 32.81 252.46 29.17Z" fill="#00FFE0"/>
<path d="M52.5 208.31H20.5C19.837 208.31 19.2011 208.047 18.7322 207.578C18.2634 207.109 18 206.473 18 205.81V192.81C18 192.147 18.2634 191.511 18.7322 191.042C19.2011 190.573 19.837 190.31 20.5 190.31H46.5C47.163 190.31 47.7989 190.047 48.2678 189.578C48.7366 189.109 49 188.473 49 187.81V178.81C49 178.147 48.7366 177.511 48.2678 177.042C47.7989 176.573 47.163 176.31 46.5 176.31H20.5C19.837 176.31 19.2011 176.047 18.7322 175.578C18.2634 175.109 18 174.473 18 173.81V163.81C18 163.147 18.2634 162.511 18.7322 162.042C19.2011 161.573 19.837 161.31 20.5 161.31H49.5C50.163 161.31 50.7989 161.047 51.2678 160.578C51.7366 160.109 52 159.473 52 158.81V149.81C52 149.147 51.7366 148.511 51.2678 148.042C50.7989 147.573 50.163 147.31 49.5 147.31H2.5C1.83696 147.31 1.20108 147.573 0.732235 148.042C0.263394 148.511 0 149.147 0 149.81V220.81C0 221.473 0.263394 222.109 0.732235 222.578C1.20108 223.047 1.83696 223.31 2.5 223.31H52.5C53.163 223.31 53.7989 223.047 54.2678 222.578C54.7366 222.109 55 221.473 55 220.81V210.81C55 210.147 54.7366 209.511 54.2678 209.042C53.7989 208.573 53.163 208.31 52.5 208.31V208.31Z" fill="#00FFE0"/>
<path d="M134.67 147.31H121.79C121.264 147.308 120.75 147.474 120.324 147.783C119.898 148.092 119.581 148.529 119.42 149.03C118.14 152.963 116.74 157.14 115.22 161.56C113.48 166.633 111.707 171.687 109.9 176.72C108.093 181.753 106.343 186.583 104.65 191.21C103.82 193.46 103.03 195.57 102.26 197.52C102.076 197.986 101.756 198.386 101.341 198.668C100.926 198.95 100.436 199.101 99.9351 199.101C99.4337 199.101 98.9439 198.95 98.5292 198.668C98.1146 198.386 97.7944 197.986 97.6101 197.52C96.8301 195.52 96.0301 193.397 95.2101 191.15L90.0201 176.67C88.2201 171.63 86.4468 166.573 84.7001 161.5C83.1801 157.08 81.7834 152.917 80.5101 149.01C80.3488 148.509 80.0321 148.072 79.606 147.763C79.18 147.454 78.6665 147.288 78.1401 147.29H64.5901C64.193 147.29 63.8016 147.384 63.4482 147.565C63.0948 147.746 62.7897 148.009 62.558 148.332C62.3264 148.654 62.1749 149.027 62.1162 149.42C62.0574 149.813 62.093 150.214 62.2201 150.59C63.5534 154.59 65.1001 158.973 66.8601 163.74C69.0801 169.887 71.5134 176.32 74.1601 183.04C76.8068 189.76 79.6034 196.57 82.5501 203.47C85.2701 209.817 88.0267 215.963 90.8201 221.91C91.0234 222.339 91.345 222.702 91.747 222.955C92.149 223.209 92.6149 223.342 93.0901 223.34H106.22C106.695 223.342 107.161 223.209 107.563 222.955C107.965 222.702 108.287 222.339 108.49 221.91C111.27 215.99 114.013 209.853 116.72 203.5C119.64 196.62 122.417 189.82 125.05 183.1C127.683 176.38 130.107 169.95 132.32 163.81C134.04 159.043 135.607 154.663 137.02 150.67C137.161 150.292 137.208 149.885 137.157 149.485C137.106 149.085 136.959 148.703 136.727 148.373C136.496 148.042 136.188 147.773 135.83 147.588C135.471 147.403 135.073 147.307 134.67 147.31V147.31Z" fill="#00FFE0"/>
<path d="M199.5 208.31H167.5C166.837 208.31 166.201 208.047 165.732 207.578C165.263 207.109 165 206.473 165 205.81V192.81C165 192.147 165.263 191.511 165.732 191.042C166.201 190.573 166.837 190.31 167.5 190.31H193.5C194.163 190.31 194.799 190.047 195.268 189.578C195.737 189.109 196 188.473 196 187.81V178.81C196 178.147 195.737 177.511 195.268 177.042C194.799 176.573 194.163 176.31 193.5 176.31H167.5C166.837 176.31 166.201 176.047 165.732 175.578C165.263 175.109 165 174.473 165 173.81V163.81C165 163.147 165.263 162.511 165.732 162.042C166.201 161.573 166.837 161.31 167.5 161.31H197.5C198.163 161.31 198.799 161.047 199.268 160.578C199.737 160.109 200 159.473 200 158.81V149.81C200 149.147 199.737 148.511 199.268 148.042C198.799 147.573 198.163 147.31 197.5 147.31H150.5C149.837 147.31 149.201 147.573 148.732 148.042C148.263 148.511 148 149.147 148 149.81V220.81C148 221.473 148.263 222.109 148.732 222.578C149.201 223.047 149.837 223.31 150.5 223.31H199.5C200.163 223.31 200.799 223.047 201.268 222.578C201.737 222.109 202 221.473 202 220.81V210.81C202 210.147 201.737 209.511 201.268 209.042C200.799 208.573 200.163 208.31 199.5 208.31V208.31Z" fill="#00FFE0"/>
<path d="M280 147.31H265C264.735 147.31 264.48 147.415 264.293 147.603C264.105 147.79 264 148.045 264 148.31V188.92C263.997 189.132 263.928 189.337 263.801 189.507C263.674 189.676 263.497 189.801 263.294 189.864C263.092 189.926 262.875 189.922 262.675 189.853C262.474 189.784 262.301 189.654 262.18 189.48C260.04 186.36 257.793 183.143 255.44 179.83C252.4 175.55 249.347 171.417 246.28 167.43C243.213 163.443 240.193 159.697 237.22 156.19C234.367 152.817 231.76 149.953 229.4 147.6C229.307 147.507 229.196 147.434 229.074 147.384C228.952 147.334 228.822 147.309 228.69 147.31H216C215.735 147.31 215.48 147.415 215.293 147.603C215.105 147.79 215 148.045 215 148.31V222.31C215 222.575 215.105 222.83 215.293 223.017C215.48 223.205 215.735 223.31 216 223.31H231C231.265 223.31 231.52 223.205 231.707 223.017C231.895 222.83 232 222.575 232 222.31V176.24C231.997 176.033 232.059 175.831 232.176 175.661C232.294 175.49 232.461 175.361 232.655 175.289C232.849 175.218 233.061 175.209 233.26 175.262C233.46 175.316 233.638 175.431 233.77 175.59C239.693 182.611 245.244 189.937 250.4 197.54C256.047 205.86 261.31 214.283 266.19 222.81C266.277 222.961 266.403 223.087 266.553 223.175C266.704 223.262 266.875 223.309 267.05 223.31H280C280.265 223.31 280.52 223.205 280.707 223.017C280.895 222.83 281 222.575 281 222.31V148.31C281 148.179 280.974 148.049 280.924 147.927C280.874 147.806 280.8 147.696 280.707 147.603C280.614 147.51 280.504 147.436 280.383 147.386C280.261 147.336 280.131 147.31 280 147.31Z" fill="#00FFE0"/>
<path d="M352.5 147.31H294.5C293.837 147.31 293.201 147.573 292.732 148.042C292.263 148.511 292 149.147 292 149.81V159.81C292 160.473 292.263 161.109 292.732 161.578C293.201 162.047 293.837 162.31 294.5 162.31H312.5C313.163 162.31 313.799 162.573 314.268 163.042C314.737 163.511 315 164.147 315 164.81V220.81C315 221.473 315.263 222.109 315.732 222.578C316.201 223.047 316.837 223.31 317.5 223.31H329.5C330.163 223.31 330.799 223.047 331.268 222.578C331.737 222.109 332 221.473 332 220.81V164.81C332 164.147 332.263 163.511 332.732 163.042C333.201 162.573 333.837 162.31 334.5 162.31H352.5C353.163 162.31 353.799 162.047 354.268 161.578C354.737 161.109 355 160.473 355 159.81V149.81C355 149.147 354.737 148.511 354.268 148.042C353.799 147.573 353.163 147.31 352.5 147.31Z" fill="#00FFE0"/>
<path d="M415.22 193.11C414.284 190.576 412.798 188.282 410.87 186.39C408.709 184.343 406.235 182.655 403.54 181.39C400.613 179.957 397.163 178.507 393.19 177.04C391.283 176.373 389.54 175.733 387.96 175.12C386.504 174.552 385.105 173.849 383.78 173.02C382.679 172.358 381.724 171.48 380.97 170.44C380.281 169.395 379.931 168.162 379.97 166.91C379.908 165.877 380.126 164.847 380.599 163.927C381.072 163.006 381.784 162.23 382.66 161.68C384.46 160.54 387.417 159.97 391.53 159.97C394.717 159.905 397.894 160.334 400.95 161.24C402.6 161.78 404.16 162.36 405.62 163C405.933 163.14 406.272 163.215 406.615 163.219C406.958 163.223 407.298 163.156 407.614 163.023C407.93 162.89 408.215 162.693 408.452 162.444C408.689 162.196 408.872 161.902 408.99 161.58L412.24 152.71C412.454 152.114 412.435 151.459 412.186 150.877C411.938 150.295 411.478 149.828 410.9 149.57C408.594 148.539 406.218 147.67 403.79 146.97C399.451 145.793 394.966 145.237 390.47 145.32C386.519 145.266 382.583 145.802 378.79 146.91C375.585 147.847 372.592 149.399 369.98 151.48C367.582 153.428 365.66 155.897 364.36 158.7C362.998 161.687 362.315 164.938 362.36 168.22C362.263 171.326 362.904 174.41 364.23 177.22C365.423 179.606 367.066 181.739 369.07 183.5C371.096 185.235 373.359 186.673 375.79 187.77C378.29 188.91 380.79 189.92 383.28 190.77C389.01 192.68 393.04 194.46 395.4 196.11C396.464 196.765 397.345 197.679 397.961 198.767C398.576 199.855 398.906 201.08 398.92 202.33C398.932 203.421 398.746 204.505 398.37 205.53C397.959 206.531 397.264 207.39 396.37 208C395.217 208.784 393.929 209.347 392.57 209.66C390.602 210.101 388.587 210.303 386.57 210.26C382.427 210.352 378.291 209.85 374.29 208.77C372.244 208.182 370.239 207.457 368.29 206.6C367.976 206.464 367.637 206.394 367.294 206.394C366.951 206.395 366.612 206.466 366.298 206.602C365.984 206.739 365.701 206.939 365.468 207.19C365.234 207.441 365.054 207.737 364.94 208.06L361.76 217.06C361.555 217.636 361.57 218.267 361.8 218.833C362.031 219.399 362.461 219.861 363.01 220.13C363.57 220.41 364.18 220.69 364.83 220.97C366.586 221.718 368.39 222.346 370.23 222.85C372.601 223.491 375.009 223.985 377.44 224.33C380.467 224.759 383.523 224.963 386.58 224.94C396.64 224.94 404.167 222.977 409.16 219.05C414.153 215.123 416.65 209.597 416.65 202.47C416.726 199.29 416.242 196.122 415.22 193.11V193.11Z" fill="#00FFE0"/>
<path d="M286.16 14.12C285.703 13.5451 285.136 13.066 284.494 12.7101C283.851 12.3542 283.145 12.1284 282.415 12.0457C281.685 11.9631 280.945 12.0251 280.239 12.2283C279.533 12.4316 278.874 12.7719 278.3 13.23L278.25 13.28H278.19C272.967 17.482 268.488 22.5324 264.94 28.22C264.551 28.8431 264.289 29.5367 264.168 30.2612C264.048 30.9856 264.071 31.7267 264.237 32.4422C264.403 33.1577 264.708 33.8335 265.135 34.4311C265.561 35.0286 266.102 35.5363 266.725 35.925C267.348 36.3137 268.042 36.5759 268.766 36.6965C269.491 36.8172 270.232 36.794 270.947 36.6283C271.663 36.4625 272.339 36.1575 272.936 35.7305C273.534 35.3036 274.041 34.7631 274.43 34.14C277.033 29.9779 280.249 26.2324 283.97 23.03L284.13 22.89L284.21 22.82L284.26 22.77H284.31H284.79L284.85 22.71L284.95 22.64C285.65 22.2096 286.246 21.6302 286.697 20.943C287.147 20.2558 287.441 19.4778 287.556 18.6642C287.672 17.8507 287.607 17.0217 287.365 16.2363C287.124 15.4508 286.712 14.7283 286.16 14.12ZM263.92 42.61C263.52 42.5147 263.111 42.4677 262.7 42.47C261.43 42.4712 260.199 42.9046 259.208 43.6989C258.218 44.4931 257.527 45.6009 257.25 46.84V46.91V46.97C257.08 47.76 256.92 48.55 256.79 49.35C260.252 48.3494 263.837 47.841 267.44 47.84C267.75 47.84 268.05 47.84 268.36 47.84C268.308 46.5983 267.843 45.4095 267.039 44.4621C266.234 43.5146 265.137 42.8628 263.92 42.61V42.61ZM371.28 38.61C370.75 37.2242 369.69 36.106 368.335 35.5012C366.98 34.8964 365.441 34.8546 364.055 35.385C362.669 35.9154 361.551 36.9746 360.946 38.3296C360.341 39.6845 360.3 41.2242 360.83 42.61C361.498 44.361 362.059 46.151 362.51 47.97C366.541 48.0049 370.541 48.68 374.36 49.97C373.709 46.1012 372.677 42.3062 371.28 38.64V38.61ZM361.12 21.47V21.41C356.774 16.3036 351.598 11.9662 345.81 8.58C344.53 7.82944 343.005 7.61796 341.569 7.9921C340.134 8.36623 338.906 9.29533 338.155 10.575C337.404 11.8547 337.193 13.3801 337.567 14.8157C337.941 16.2513 338.87 17.4794 340.15 18.23C341 18.73 341.83 19.23 342.65 19.8L342.81 19.9L342.93 19.99H343.02H343.1H343.16H343.32H343.4L343.46 20.04L343.55 20.11L343.64 20.18L343.73 20.25L343.9 20.38C346.717 22.5091 349.292 24.9403 351.58 27.63V27.63C352.053 28.1914 352.633 28.6541 353.285 28.9916C353.937 29.3291 354.65 29.5348 355.381 29.597C356.113 29.6592 356.85 29.5767 357.55 29.3542C358.249 29.1316 358.899 28.7734 359.46 28.3C360.021 27.8266 360.484 27.2472 360.822 26.595C361.159 25.9428 361.365 25.2305 361.427 24.4988C361.489 23.767 361.407 23.0302 361.184 22.3304C360.962 21.6305 360.603 20.9814 360.13 20.42L361.12 21.47ZM326.93 1.36H326.79H326.72H326.65C322.969 0.68131 319.233 0.346535 315.49 0.360001C308.79 0.312546 302.13 1.39435 295.79 3.56C294.524 3.98382 293.45 4.84623 292.764 5.99165C292.078 7.13708 291.823 8.49011 292.046 9.8067C292.269 11.1233 292.956 12.3168 293.982 13.1718C295.007 14.0269 296.305 14.4873 297.64 14.47C298.271 14.471 298.896 14.3627 299.49 14.15L299.91 14.01H299.98H300.08H300.15H300.22H300.33H300.4H300.58H300.96H301.2H301.28H301.37H301.45H301.52H301.63H301.79H301.93H302.07H302.21C304.526 13.3638 306.885 12.8859 309.27 12.58H309.46H309.65H310.06H310.22H310.29H310.41H318.79H319.13H319.25H319.67C321.1 12.7 322.52 12.88 323.91 13.13H324.14H324.32H324.79C325.512 13.2699 326.255 13.2661 326.976 13.1189C327.697 12.9717 328.381 12.684 328.991 12.2722C329.601 11.8603 330.123 11.3325 330.529 10.7187C330.934 10.1049 331.215 9.41728 331.355 8.69501C331.495 7.97274 331.491 7.22998 331.344 6.50917C331.197 5.78836 330.909 5.10361 330.497 4.49399C330.085 3.88437 329.557 3.36184 328.944 2.95622C328.33 2.55061 327.642 2.26986 326.92 2.13001L326.93 1.36Z" fill="#00FFE0"/>
<path d="M316.5 23.47C308.375 23.4793 300.461 26.0596 293.892 30.8413C287.323 35.623 282.436 42.3609 279.93 50.09C283.113 51.1883 286.138 52.6977 288.93 54.58C290.499 48.6597 293.935 43.4027 298.727 39.5885C303.519 35.7743 309.413 33.606 315.534 33.4051C321.656 33.2042 327.679 34.9814 332.711 38.4731C337.743 41.9649 341.516 46.9853 343.47 52.79C346.384 51.1888 349.488 49.9624 352.71 49.14C350.065 41.6449 345.164 35.1528 338.68 30.5562C332.196 25.9596 324.448 23.4841 316.5 23.47V23.47Z" fill="#00FFE0"/>
<path d="M393.62 64.14C388.841 57.5203 382.104 52.5675 374.36 49.98C370.541 48.69 366.541 48.0149 362.51 47.98H362.18C358.997 47.9835 355.826 48.3798 352.74 49.16C349.519 49.9824 346.414 51.2088 343.5 52.81C339.14 55.2122 335.281 58.4267 332.13 62.28C331.4 62.39 330.67 62.52 329.95 62.68C326.131 61.0459 321.94 60.4796 317.824 61.0414C313.708 61.6032 309.822 63.2721 306.58 65.87C304.084 64.9581 301.478 64.3798 298.83 64.15C294.126 57.6444 287.524 52.754 279.93 50.15C276.188 48.8429 272.263 48.131 268.3 48.04C267.99 48.04 267.69 48.04 267.38 48.04C263.781 48.015 260.195 48.4964 256.73 49.47C255.92 49.71 255.13 49.97 254.34 50.25C247.693 52.641 241.819 56.7879 237.34 62.25C234.606 62.665 231.939 63.4419 229.41 64.56C224.204 66.8322 219.696 70.4494 216.35 75.04C215.74 75.04 215.13 75.04 214.53 75.12C209.044 75.552 203.848 77.7602 199.73 81.41C197.252 83.6117 195.234 86.2815 193.792 89.2657C192.35 92.25 191.512 95.4899 191.326 98.7992C191.14 102.108 191.61 105.422 192.709 108.549C193.808 111.676 195.515 114.555 197.73 117.02C200.078 119.658 202.955 121.773 206.173 123.229C209.39 124.684 212.878 125.448 216.41 125.47H390.88C398.79 125.477 406.397 122.432 412.116 116.968C417.835 111.504 421.224 104.043 421.578 96.1413C421.931 88.2396 419.221 80.5064 414.012 74.5538C408.804 68.6012 401.499 64.8886 393.62 64.19V64.14ZM390.88 115.47H216.41C212.387 115.462 208.531 113.856 205.692 111.006C202.853 108.155 201.262 104.293 201.27 100.27C201.278 96.2467 202.884 92.3913 205.734 89.552C208.585 86.7127 212.447 85.122 216.47 85.13H217.52C218.942 85.2314 220.343 85.5344 221.68 86.03C223.244 81.8988 226.026 78.3408 229.659 75.8279C233.292 73.315 237.603 71.966 242.02 71.96H242.72C245.648 67.0755 249.96 63.1704 255.11 60.74L255.82 60.41C259.358 58.8558 263.175 58.0359 267.04 58H267.38C272.78 58.0088 278.068 59.5375 282.64 62.4113C287.211 65.2851 290.881 69.3878 293.23 74.25C298.063 73.5651 302.982 74.629 307.1 77.25C307.782 77.6747 308.433 78.1458 309.05 78.66C309.835 76.8592 311.017 75.2597 312.509 73.9816C314 72.7035 315.762 71.78 317.662 71.2805C319.562 70.781 321.55 70.7185 323.477 71.0978C325.405 71.477 327.221 72.288 328.79 73.47C331.352 72.4536 334.084 71.9344 336.84 71.94H337.54C339.455 68.7496 341.968 65.9586 344.94 63.72C349.916 59.987 355.969 57.9693 362.19 57.97C362.79 57.97 363.38 57.97 363.97 58.03C367.708 58.251 371.364 59.2094 374.73 60.85C380.54 63.6891 385.227 68.3977 388.04 74.22C390.81 73.9189 393.611 74.1803 396.278 74.9884C398.944 75.7965 401.419 77.1347 403.556 78.9228C405.692 80.7109 407.445 82.912 408.71 85.3942C409.975 87.8763 410.726 90.5884 410.917 93.3677C411.109 96.147 410.737 98.9364 409.824 101.568C408.911 104.201 407.476 106.621 405.605 108.685C403.734 110.749 401.465 112.414 398.935 113.58C396.404 114.746 393.665 115.389 390.88 115.47V115.47Z" fill="#00FFE0"/>
</g>
<defs>
<clipPath id="clip0_4084_1085">
<rect width="421.58" height="224.94" fill="white"/>
</clipPath>
</defs>
</svg>
