<svg width="94" height="48" viewBox="0 0 94 48" fill="none" xmlns="http://www.w3.org/2000/svg">
<path d="M0.576 11.6V0.399999H5.184C5.888 0.399999 6.50667 0.543999 7.04 0.831999C7.584 1.10933 8.00533 1.504 8.304 2.016C8.61333 2.528 8.768 3.136 8.768 3.84V4.064C8.768 4.75733 8.608 5.36533 8.288 5.888C7.97867 6.4 7.552 6.8 7.008 7.088C6.47467 7.36533 5.86667 7.504 5.184 7.504H2.688V11.6H0.576ZM2.688 5.584H4.976C5.47733 5.584 5.88267 5.44533 6.192 5.168C6.50133 4.89067 6.656 4.512 6.656 4.032V3.872C6.656 3.392 6.50133 3.01333 6.192 2.736C5.88267 2.45867 5.47733 2.32 4.976 2.32H2.688V5.584Z" fill="white"/>
<path d="M0.576 11.6V0.399999H5.184C5.888 0.399999 6.50667 0.543999 7.04 0.831999C7.584 1.10933 8.00533 1.504 8.304 2.016C8.61333 2.528 8.768 3.136 8.768 3.84V4.064C8.768 4.75733 8.608 5.36533 8.288 5.888C7.97867 6.4 7.552 6.8 7.008 7.088C6.47467 7.36533 5.86667 7.504 5.184 7.504H2.688V11.6H0.576ZM2.688 5.584H4.976C5.47733 5.584 5.88267 5.44533 6.192 5.168C6.50133 4.89067 6.656 4.512 6.656 4.032V3.872C6.656 3.392 6.50133 3.01333 6.192 2.736C5.88267 2.45867 5.47733 2.32 4.976 2.32H2.688V5.584Z" fill="url(#paint0_linear_4309_1042)"/>
<path d="M10.2323 11.6V0.399999H15.0963C15.8003 0.399999 16.4136 0.522665 16.9363 0.767999C17.4589 1.01333 17.8643 1.36 18.1523 1.808C18.4403 2.256 18.5842 2.784 18.5842 3.392V3.584C18.5842 4.256 18.4242 4.8 18.1042 5.216C17.7843 5.632 17.3896 5.936 16.9202 6.128V6.416C17.3469 6.43733 17.6776 6.58667 17.9123 6.864C18.1469 7.13067 18.2642 7.488 18.2642 7.936V11.6H16.1523V8.24C16.1523 7.984 16.0829 7.776 15.9443 7.616C15.8162 7.456 15.5976 7.376 15.2882 7.376H12.3442V11.6H10.2323ZM12.3442 5.456H14.8722C15.3736 5.456 15.7629 5.32267 16.0403 5.056C16.3283 4.77867 16.4722 4.416 16.4722 3.968V3.808C16.4722 3.36 16.3336 3.00267 16.0562 2.736C15.7789 2.45867 15.3842 2.32 14.8722 2.32H12.3442V5.456Z" fill="white"/>
<path d="M10.2323 11.6V0.399999H15.0963C15.8003 0.399999 16.4136 0.522665 16.9363 0.767999C17.4589 1.01333 17.8643 1.36 18.1523 1.808C18.4403 2.256 18.5842 2.784 18.5842 3.392V3.584C18.5842 4.256 18.4242 4.8 18.1042 5.216C17.7843 5.632 17.3896 5.936 16.9202 6.128V6.416C17.3469 6.43733 17.6776 6.58667 17.9123 6.864C18.1469 7.13067 18.2642 7.488 18.2642 7.936V11.6H16.1523V8.24C16.1523 7.984 16.0829 7.776 15.9443 7.616C15.8162 7.456 15.5976 7.376 15.2882 7.376H12.3442V11.6H10.2323ZM12.3442 5.456H14.8722C15.3736 5.456 15.7629 5.32267 16.0403 5.056C16.3283 4.77867 16.4722 4.416 16.4722 3.968V3.808C16.4722 3.36 16.3336 3.00267 16.0562 2.736C15.7789 2.45867 15.3842 2.32 14.8722 2.32H12.3442V5.456Z" fill="url(#paint1_linear_4309_1042)"/>
<path d="M19.5736 11.6L22.5176 0.399999H26.1976L29.1416 11.6H26.9656L26.3576 9.136H22.3576L21.7496 11.6H19.5736ZM22.8536 7.184H25.8616L24.5016 1.728H24.2136L22.8536 7.184Z" fill="white"/>
<path d="M19.5736 11.6L22.5176 0.399999H26.1976L29.1416 11.6H26.9656L26.3576 9.136H22.3576L21.7496 11.6H19.5736ZM22.8536 7.184H25.8616L24.5016 1.728H24.2136L22.8536 7.184Z" fill="url(#paint2_linear_4309_1042)"/>
<path d="M34.2605 11.824C33.4925 11.824 32.7938 11.6533 32.1645 11.312C31.5458 10.96 31.0498 10.4533 30.6765 9.792C30.3138 9.12 30.1325 8.304 30.1325 7.344V4.656C30.1325 3.216 30.5378 2.112 31.3485 1.344C32.1592 0.565332 33.2578 0.175999 34.6445 0.175999C36.0205 0.175999 37.0818 0.543999 37.8285 1.28C38.5858 2.00533 38.9645 2.992 38.9645 4.24V4.304H36.8845V4.176C36.8845 3.78133 36.7992 3.424 36.6285 3.104C36.4685 2.784 36.2232 2.53333 35.8925 2.352C35.5618 2.16 35.1458 2.064 34.6445 2.064C33.8978 2.064 33.3112 2.29333 32.8845 2.752C32.4578 3.21067 32.2445 3.83467 32.2445 4.624V7.376C32.2445 8.15467 32.4578 8.784 32.8845 9.264C33.3112 9.73333 33.9085 9.968 34.6765 9.968C35.4445 9.968 36.0045 9.76533 36.3565 9.36C36.7085 8.95467 36.8845 8.44267 36.8845 7.824V7.664H34.2285V5.872H38.9645V11.6H37.0125V10.528H36.7245C36.6498 10.7093 36.5272 10.9013 36.3565 11.104C36.1965 11.3067 35.9512 11.4773 35.6205 11.616C35.2898 11.7547 34.8365 11.824 34.2605 11.824Z" fill="white"/>
<path d="M34.2605 11.824C33.4925 11.824 32.7938 11.6533 32.1645 11.312C31.5458 10.96 31.0498 10.4533 30.6765 9.792C30.3138 9.12 30.1325 8.304 30.1325 7.344V4.656C30.1325 3.216 30.5378 2.112 31.3485 1.344C32.1592 0.565332 33.2578 0.175999 34.6445 0.175999C36.0205 0.175999 37.0818 0.543999 37.8285 1.28C38.5858 2.00533 38.9645 2.992 38.9645 4.24V4.304H36.8845V4.176C36.8845 3.78133 36.7992 3.424 36.6285 3.104C36.4685 2.784 36.2232 2.53333 35.8925 2.352C35.5618 2.16 35.1458 2.064 34.6445 2.064C33.8978 2.064 33.3112 2.29333 32.8845 2.752C32.4578 3.21067 32.2445 3.83467 32.2445 4.624V7.376C32.2445 8.15467 32.4578 8.784 32.8845 9.264C33.3112 9.73333 33.9085 9.968 34.6765 9.968C35.4445 9.968 36.0045 9.76533 36.3565 9.36C36.7085 8.95467 36.8845 8.44267 36.8845 7.824V7.664H34.2285V5.872H38.9645V11.6H37.0125V10.528H36.7245C36.6498 10.7093 36.5272 10.9013 36.3565 11.104C36.1965 11.3067 35.9512 11.4773 35.6205 11.616C35.2898 11.7547 34.8365 11.824 34.2605 11.824Z" fill="url(#paint3_linear_4309_1042)"/>
<path d="M45.3022 11.824C44.3849 11.824 43.5956 11.6587 42.9342 11.328C42.2836 10.9867 41.7822 10.5067 41.4302 9.888C41.0889 9.25867 40.9183 8.51733 40.9183 7.664V0.399999H43.0303V7.728C43.0303 8.41067 43.2223 8.94933 43.6063 9.344C44.0009 9.73867 44.5662 9.936 45.3022 9.936C46.0382 9.936 46.5983 9.73867 46.9823 9.344C47.3769 8.94933 47.5742 8.41067 47.5742 7.728V0.399999H49.6862V7.664C49.6862 8.51733 49.5103 9.25867 49.1582 9.888C48.8169 10.5067 48.3156 10.9867 47.6543 11.328C47.0036 11.6587 46.2196 11.824 45.3022 11.824Z" fill="white"/>
<path d="M45.3022 11.824C44.3849 11.824 43.5956 11.6587 42.9342 11.328C42.2836 10.9867 41.7822 10.5067 41.4302 9.888C41.0889 9.25867 40.9183 8.51733 40.9183 7.664V0.399999H43.0303V7.728C43.0303 8.41067 43.2223 8.94933 43.6063 9.344C44.0009 9.73867 44.5662 9.936 45.3022 9.936C46.0382 9.936 46.5983 9.73867 46.9823 9.344C47.3769 8.94933 47.5742 8.41067 47.5742 7.728V0.399999H49.6862V7.664C49.6862 8.51733 49.5103 9.25867 49.1582 9.888C48.8169 10.5067 48.3156 10.9867 47.6543 11.328C47.0036 11.6587 46.2196 11.824 45.3022 11.824Z" fill="url(#paint4_linear_4309_1042)"/>
<path d="M51.7323 11.6V0.399999H58.9323V2.32H53.8442V4.992H58.4842V6.912H53.8442V9.68H59.0283V11.6H51.7323Z" fill="white"/>
<path d="M51.7323 11.6V0.399999H58.9323V2.32H53.8442V4.992H58.4842V6.912H53.8442V9.68H59.0283V11.6H51.7323Z" fill="url(#paint5_linear_4309_1042)"/>
<path d="M0.256 29.6V27.744H1.728V20.256H0.256V18.4H6.016C6.69867 18.4 7.29067 18.5173 7.792 18.752C8.304 18.976 8.69867 19.3013 8.976 19.728C9.264 20.144 9.408 20.6453 9.408 21.232V21.392C9.408 21.904 9.312 22.3253 9.12 22.656C8.928 22.976 8.69867 23.2267 8.432 23.408C8.176 23.5787 7.93067 23.7013 7.696 23.776V24.064C7.93067 24.128 8.18667 24.2507 8.464 24.432C8.74133 24.6027 8.976 24.8533 9.168 25.184C9.37067 25.5147 9.472 25.9467 9.472 26.48V26.64C9.472 27.2587 9.328 27.792 9.04 28.24C8.752 28.6773 8.352 29.0133 7.84 29.248C7.33867 29.4827 6.752 29.6 6.08 29.6H0.256ZM3.84 27.68H5.824C6.28267 27.68 6.65067 27.568 6.928 27.344C7.216 27.12 7.36 26.8 7.36 26.384V26.224C7.36 25.808 7.22133 25.488 6.944 25.264C6.66667 25.04 6.29333 24.928 5.824 24.928H3.84V27.68ZM3.84 23.008H5.792C6.22933 23.008 6.58667 22.896 6.864 22.672C7.152 22.448 7.296 22.1387 7.296 21.744V21.584C7.296 21.1787 7.15733 20.8693 6.88 20.656C6.60267 20.432 6.24 20.32 5.792 20.32H3.84V23.008Z" fill="white"/>
<path d="M0.256 29.6V27.744H1.728V20.256H0.256V18.4H6.016C6.69867 18.4 7.29067 18.5173 7.792 18.752C8.304 18.976 8.69867 19.3013 8.976 19.728C9.264 20.144 9.408 20.6453 9.408 21.232V21.392C9.408 21.904 9.312 22.3253 9.12 22.656C8.928 22.976 8.69867 23.2267 8.432 23.408C8.176 23.5787 7.93067 23.7013 7.696 23.776V24.064C7.93067 24.128 8.18667 24.2507 8.464 24.432C8.74133 24.6027 8.976 24.8533 9.168 25.184C9.37067 25.5147 9.472 25.9467 9.472 26.48V26.64C9.472 27.2587 9.328 27.792 9.04 28.24C8.752 28.6773 8.352 29.0133 7.84 29.248C7.33867 29.4827 6.752 29.6 6.08 29.6H0.256ZM3.84 27.68H5.824C6.28267 27.68 6.65067 27.568 6.928 27.344C7.216 27.12 7.36 26.8 7.36 26.384V26.224C7.36 25.808 7.22133 25.488 6.944 25.264C6.66667 25.04 6.29333 24.928 5.824 24.928H3.84V27.68ZM3.84 23.008H5.792C6.22933 23.008 6.58667 22.896 6.864 22.672C7.152 22.448 7.296 22.1387 7.296 21.744V21.584C7.296 21.1787 7.15733 20.8693 6.88 20.656C6.60267 20.432 6.24 20.32 5.792 20.32H3.84V23.008Z" fill="url(#paint6_linear_4309_1042)"/>
<path d="M11.201 29.6V18.4H13.313V27.68H18.433V29.6H11.201Z" fill="white"/>
<path d="M11.201 29.6V18.4H13.313V27.68H18.433V29.6H11.201Z" fill="url(#paint7_linear_4309_1042)"/>
<path d="M23.8343 29.824C22.4263 29.824 21.3063 29.44 20.4743 28.672C19.6423 27.8933 19.2262 26.784 19.2262 25.344V22.656C19.2262 21.216 19.6423 20.112 20.4743 19.344C21.3063 18.5653 22.4263 18.176 23.8343 18.176C25.2423 18.176 26.3622 18.5653 27.1943 19.344C28.0263 20.112 28.4423 21.216 28.4423 22.656V25.344C28.4423 26.784 28.0263 27.8933 27.1943 28.672C26.3622 29.44 25.2423 29.824 23.8343 29.824ZM23.8343 27.936C24.6236 27.936 25.2369 27.7067 25.6742 27.248C26.1116 26.7893 26.3302 26.176 26.3302 25.408V22.592C26.3302 21.824 26.1116 21.2107 25.6742 20.752C25.2369 20.2933 24.6236 20.064 23.8343 20.064C23.0556 20.064 22.4422 20.2933 21.9942 20.752C21.5569 21.2107 21.3382 21.824 21.3382 22.592V25.408C21.3382 26.176 21.5569 26.7893 21.9942 27.248C22.4422 27.7067 23.0556 27.936 23.8343 27.936Z" fill="white"/>
<path d="M23.8343 29.824C22.4263 29.824 21.3063 29.44 20.4743 28.672C19.6423 27.8933 19.2262 26.784 19.2262 25.344V22.656C19.2262 21.216 19.6423 20.112 20.4743 19.344C21.3063 18.5653 22.4263 18.176 23.8343 18.176C25.2423 18.176 26.3622 18.5653 27.1943 19.344C28.0263 20.112 28.4423 21.216 28.4423 22.656V25.344C28.4423 26.784 28.0263 27.8933 27.1943 28.672C26.3622 29.44 25.2423 29.824 23.8343 29.824ZM23.8343 27.936C24.6236 27.936 25.2369 27.7067 25.6742 27.248C26.1116 26.7893 26.3302 26.176 26.3302 25.408V22.592C26.3302 21.824 26.1116 21.2107 25.6742 20.752C25.2369 20.2933 24.6236 20.064 23.8343 20.064C23.0556 20.064 22.4422 20.2933 21.9942 20.752C21.5569 21.2107 21.3382 21.824 21.3382 22.592V25.408C21.3382 26.176 21.5569 26.7893 21.9942 27.248C22.4422 27.7067 23.0556 27.936 23.8343 27.936Z" fill="url(#paint8_linear_4309_1042)"/>
<path d="M34.5508 29.824C33.1641 29.824 32.0654 29.44 31.2547 28.672C30.4441 27.8933 30.0387 26.784 30.0387 25.344V22.656C30.0387 21.216 30.4441 20.112 31.2547 19.344C32.0654 18.5653 33.1641 18.176 34.5508 18.176C35.9268 18.176 36.9881 18.5547 37.7347 19.312C38.4921 20.0587 38.8708 21.088 38.8708 22.4V22.496H36.7907V22.336C36.7907 21.6747 36.6041 21.1307 36.2308 20.704C35.8681 20.2773 35.3081 20.064 34.5508 20.064C33.8041 20.064 33.2174 20.2933 32.7907 20.752C32.3641 21.2107 32.1507 21.8347 32.1507 22.624V25.376C32.1507 26.1547 32.3641 26.7787 32.7907 27.248C33.2174 27.7067 33.8041 27.936 34.5508 27.936C35.3081 27.936 35.8681 27.7227 36.2308 27.296C36.6041 26.8587 36.7907 26.3147 36.7907 25.664V25.376H38.8708V25.6C38.8708 26.912 38.4921 27.9467 37.7347 28.704C36.9881 29.4507 35.9268 29.824 34.5508 29.824Z" fill="white"/>
<path d="M34.5508 29.824C33.1641 29.824 32.0654 29.44 31.2547 28.672C30.4441 27.8933 30.0387 26.784 30.0387 25.344V22.656C30.0387 21.216 30.4441 20.112 31.2547 19.344C32.0654 18.5653 33.1641 18.176 34.5508 18.176C35.9268 18.176 36.9881 18.5547 37.7347 19.312C38.4921 20.0587 38.8708 21.088 38.8708 22.4V22.496H36.7907V22.336C36.7907 21.6747 36.6041 21.1307 36.2308 20.704C35.8681 20.2773 35.3081 20.064 34.5508 20.064C33.8041 20.064 33.2174 20.2933 32.7907 20.752C32.3641 21.2107 32.1507 21.8347 32.1507 22.624V25.376C32.1507 26.1547 32.3641 26.7787 32.7907 27.248C33.2174 27.7067 33.8041 27.936 34.5508 27.936C35.3081 27.936 35.8681 27.7227 36.2308 27.296C36.6041 26.8587 36.7907 26.3147 36.7907 25.664V25.376H38.8708V25.6C38.8708 26.912 38.4921 27.9467 37.7347 28.704C36.9881 29.4507 35.9268 29.824 34.5508 29.824Z" fill="url(#paint9_linear_4309_1042)"/>
<path d="M40.5916 29.6V18.4H42.7036V22.848H42.9916L46.6236 18.4H49.3276L44.6556 23.92L49.4876 29.6H46.7036L42.9916 25.056H42.7036V29.6H40.5916Z" fill="white"/>
<path d="M40.5916 29.6V18.4H42.7036V22.848H42.9916L46.6236 18.4H49.3276L44.6556 23.92L49.4876 29.6H46.7036L42.9916 25.056H42.7036V29.6H40.5916Z" fill="url(#paint10_linear_4309_1042)"/>
<path d="M54.3789 29.824C52.9922 29.824 51.8935 29.44 51.0829 28.672C50.2722 27.8933 49.8669 26.784 49.8669 25.344V22.656C49.8669 21.216 50.2722 20.112 51.0829 19.344C51.8935 18.5653 52.9922 18.176 54.3789 18.176C55.7549 18.176 56.8162 18.5547 57.5629 19.312C58.3202 20.0587 58.6989 21.088 58.6989 22.4V22.496H56.6189V22.336C56.6189 21.6747 56.4322 21.1307 56.0589 20.704C55.6962 20.2773 55.1362 20.064 54.3789 20.064C53.6322 20.064 53.0455 20.2933 52.6189 20.752C52.1922 21.2107 51.9789 21.8347 51.9789 22.624V25.376C51.9789 26.1547 52.1922 26.7787 52.6189 27.248C53.0455 27.7067 53.6322 27.936 54.3789 27.936C55.1362 27.936 55.6962 27.7227 56.0589 27.296C56.4322 26.8587 56.6189 26.3147 56.6189 25.664V25.376H58.6989V25.6C58.6989 26.912 58.3202 27.9467 57.5629 28.704C56.8162 29.4507 55.7549 29.824 54.3789 29.824Z" fill="white"/>
<path d="M54.3789 29.824C52.9922 29.824 51.8935 29.44 51.0829 28.672C50.2722 27.8933 49.8669 26.784 49.8669 25.344V22.656C49.8669 21.216 50.2722 20.112 51.0829 19.344C51.8935 18.5653 52.9922 18.176 54.3789 18.176C55.7549 18.176 56.8162 18.5547 57.5629 19.312C58.3202 20.0587 58.6989 21.088 58.6989 22.4V22.496H56.6189V22.336C56.6189 21.6747 56.4322 21.1307 56.0589 20.704C55.6962 20.2773 55.1362 20.064 54.3789 20.064C53.6322 20.064 53.0455 20.2933 52.6189 20.752C52.1922 21.2107 51.9789 21.8347 51.9789 22.624V25.376C51.9789 26.1547 52.1922 26.7787 52.6189 27.248C53.0455 27.7067 53.6322 27.936 54.3789 27.936C55.1362 27.936 55.6962 27.7227 56.0589 27.296C56.4322 26.8587 56.6189 26.3147 56.6189 25.664V25.376H58.6989V25.6C58.6989 26.912 58.3202 27.9467 57.5629 28.704C56.8162 29.4507 55.7549 29.824 54.3789 29.824Z" fill="url(#paint11_linear_4309_1042)"/>
<path d="M60.4198 29.6V18.4H62.5317V23.024H66.6917V18.4H68.8037V29.6H66.6917V24.944H62.5317V29.6H60.4198Z" fill="white"/>
<path d="M60.4198 29.6V18.4H62.5317V23.024H66.6917V18.4H68.8037V29.6H66.6917V24.944H62.5317V29.6H60.4198Z" fill="url(#paint12_linear_4309_1042)"/>
<path d="M70.1517 29.6L73.0957 18.4H76.7757L79.7197 29.6H77.5437L76.9358 27.136H72.9358L72.3278 29.6H70.1517ZM73.4317 25.184H76.4398L75.0798 19.728H74.7917L73.4317 25.184Z" fill="white"/>
<path d="M70.1517 29.6L73.0957 18.4H76.7757L79.7197 29.6H77.5437L76.9358 27.136H72.9358L72.3278 29.6H70.1517ZM73.4317 25.184H76.4398L75.0798 19.728H74.7917L73.4317 25.184Z" fill="url(#paint13_linear_4309_1042)"/>
<path d="M81.0604 29.6V18.4H83.1724V29.6H81.0604Z" fill="white"/>
<path d="M81.0604 29.6V18.4H83.1724V29.6H81.0604Z" fill="url(#paint14_linear_4309_1042)"/>
<path d="M85.2791 29.6V18.4H89.2951L91.5191 28.16H91.8071V18.4H93.8871V29.6H89.8711L87.6471 19.84H87.3591V29.6H85.2791Z" fill="white"/>
<path d="M85.2791 29.6V18.4H89.2951L91.5191 28.16H91.8071V18.4H93.8871V29.6H89.8711L87.6471 19.84H87.3591V29.6H85.2791Z" fill="url(#paint15_linear_4309_1042)"/>
<path d="M1.472 47.6L0 36.4H2.096L3.184 46.128H3.472L4.88 36.4H8.528L9.936 46.128H10.224L11.312 36.4H13.408L11.936 47.6H8.288L6.848 37.648H6.56L5.12 47.6H1.472Z" fill="white"/>
<path d="M1.472 47.6L0 36.4H2.096L3.184 46.128H3.472L4.88 36.4H8.528L9.936 46.128H10.224L11.312 36.4H13.408L11.936 47.6H8.288L6.848 37.648H6.56L5.12 47.6H1.472Z" fill="url(#paint16_linear_4309_1042)"/>
<path d="M14.951 47.6V36.4H22.151V38.32H17.063V40.992H21.703V42.912H17.063V45.68H22.247V47.6H14.951Z" fill="white"/>
<path d="M14.951 47.6V36.4H22.151V38.32H17.063V40.992H21.703V42.912H17.063V45.68H22.247V47.6H14.951Z" fill="url(#paint17_linear_4309_1042)"/>
<path d="M23.8104 47.6V36.4H31.0104V38.32H25.9224V40.992H30.5624V42.912H25.9224V45.68H31.1064V47.6H23.8104Z" fill="white"/>
<path d="M23.8104 47.6V36.4H31.0104V38.32H25.9224V40.992H30.5624V42.912H25.9224V45.68H31.1064V47.6H23.8104Z" fill="url(#paint18_linear_4309_1042)"/>
<path d="M32.6698 47.6V36.4H34.7817V40.848H35.0698L38.7018 36.4H41.4058L36.7337 41.92L41.5658 47.6H38.7817L35.0698 43.056H34.7817V47.6H32.6698Z" fill="white"/>
<path d="M32.6698 47.6V36.4H34.7817V40.848H35.0698L38.7018 36.4H41.4058L36.7337 41.92L41.5658 47.6H38.7817L35.0698 43.056H34.7817V47.6H32.6698Z" fill="url(#paint19_linear_4309_1042)"/>
<path d="M46.5399 47.6V46.432C46.5399 45.632 46.6785 44.992 46.9559 44.512C47.2439 44.032 47.6385 43.648 48.1399 43.36C48.6519 43.0613 49.2599 42.8053 49.9639 42.592L50.8439 42.32C51.3239 42.1707 51.7452 41.9893 52.1079 41.776C52.4705 41.552 52.7532 41.2747 52.9559 40.944C53.1585 40.6027 53.2599 40.1867 53.2599 39.696V39.632C53.2599 38.928 53.0145 38.3733 52.5239 37.968C52.0332 37.552 51.4039 37.344 50.6359 37.344C49.8252 37.344 49.1639 37.5627 48.6519 38C48.1399 38.4267 47.8839 39.0773 47.8839 39.952V40.176H46.6039V39.968C46.6039 39.1573 46.7799 38.4693 47.1319 37.904C47.4839 37.3387 47.9639 36.912 48.5719 36.624C49.1799 36.3253 49.8679 36.176 50.6359 36.176C51.4039 36.176 52.0812 36.32 52.6679 36.608C53.2652 36.896 53.7292 37.296 54.0599 37.808C54.3905 38.32 54.5559 38.9173 54.5559 39.6V39.744C54.5559 40.4693 54.4119 41.072 54.1239 41.552C53.8359 42.0213 53.4359 42.4053 52.9239 42.704C52.4225 43.0027 51.8305 43.2587 51.1479 43.472L50.2839 43.744C49.7399 43.9147 49.2865 44.096 48.9239 44.288C48.5719 44.4693 48.3052 44.704 48.1239 44.992C47.9425 45.28 47.8519 45.6693 47.8519 46.16V46.432H54.4599V47.6H46.5399Z" fill="white"/>
<path d="M46.5399 47.6V46.432C46.5399 45.632 46.6785 44.992 46.9559 44.512C47.2439 44.032 47.6385 43.648 48.1399 43.36C48.6519 43.0613 49.2599 42.8053 49.9639 42.592L50.8439 42.32C51.3239 42.1707 51.7452 41.9893 52.1079 41.776C52.4705 41.552 52.7532 41.2747 52.9559 40.944C53.1585 40.6027 53.2599 40.1867 53.2599 39.696V39.632C53.2599 38.928 53.0145 38.3733 52.5239 37.968C52.0332 37.552 51.4039 37.344 50.6359 37.344C49.8252 37.344 49.1639 37.5627 48.6519 38C48.1399 38.4267 47.8839 39.0773 47.8839 39.952V40.176H46.6039V39.968C46.6039 39.1573 46.7799 38.4693 47.1319 37.904C47.4839 37.3387 47.9639 36.912 48.5719 36.624C49.1799 36.3253 49.8679 36.176 50.6359 36.176C51.4039 36.176 52.0812 36.32 52.6679 36.608C53.2652 36.896 53.7292 37.296 54.0599 37.808C54.3905 38.32 54.5559 38.9173 54.5559 39.6V39.744C54.5559 40.4693 54.4119 41.072 54.1239 41.552C53.8359 42.0213 53.4359 42.4053 52.9239 42.704C52.4225 43.0027 51.8305 43.2587 51.1479 43.472L50.2839 43.744C49.7399 43.9147 49.2865 44.096 48.9239 44.288C48.5719 44.4693 48.3052 44.704 48.1239 44.992C47.9425 45.28 47.8519 45.6693 47.8519 46.16V46.432H54.4599V47.6H46.5399Z" fill="url(#paint20_linear_4309_1042)"/>
<path d="M60.4525 47.824C59.1832 47.824 58.1698 47.4507 57.4125 46.704C56.6658 45.9467 56.2925 44.816 56.2925 43.312V40.688C56.2925 39.1947 56.6658 38.0693 57.4125 37.312C58.1698 36.5547 59.1832 36.176 60.4525 36.176C61.7325 36.176 62.7458 36.5547 63.4925 37.312C64.2498 38.0693 64.6285 39.1947 64.6285 40.688V43.312C64.6285 44.816 64.2498 45.9467 63.4925 46.704C62.7458 47.4507 61.7325 47.824 60.4525 47.824ZM60.4525 46.656C61.4125 46.656 62.1325 46.368 62.6125 45.792C63.0925 45.216 63.3325 44.4107 63.3325 43.376V40.608C63.3325 39.5733 63.0872 38.7733 62.5965 38.208C62.1058 37.632 61.3912 37.344 60.4525 37.344C59.5138 37.344 58.7992 37.632 58.3085 38.208C57.8285 38.784 57.5885 39.584 57.5885 40.608V43.376C57.5885 44.4213 57.8285 45.232 58.3085 45.808C58.7885 46.3733 59.5032 46.656 60.4525 46.656Z" fill="white"/>
<path d="M60.4525 47.824C59.1832 47.824 58.1698 47.4507 57.4125 46.704C56.6658 45.9467 56.2925 44.816 56.2925 43.312V40.688C56.2925 39.1947 56.6658 38.0693 57.4125 37.312C58.1698 36.5547 59.1832 36.176 60.4525 36.176C61.7325 36.176 62.7458 36.5547 63.4925 37.312C64.2498 38.0693 64.6285 39.1947 64.6285 40.688V43.312C64.6285 44.816 64.2498 45.9467 63.4925 46.704C62.7458 47.4507 61.7325 47.824 60.4525 47.824ZM60.4525 46.656C61.4125 46.656 62.1325 46.368 62.6125 45.792C63.0925 45.216 63.3325 44.4107 63.3325 43.376V40.608C63.3325 39.5733 63.0872 38.7733 62.5965 38.208C62.1058 37.632 61.3912 37.344 60.4525 37.344C59.5138 37.344 58.7992 37.632 58.3085 38.208C57.8285 38.784 57.5885 39.584 57.5885 40.608V43.376C57.5885 44.4213 57.8285 45.232 58.3085 45.808C58.7885 46.3733 59.5032 46.656 60.4525 46.656Z" fill="url(#paint21_linear_4309_1042)"/>
<path d="M66.4305 47.6V46.432C66.4305 45.632 66.5692 44.992 66.8465 44.512C67.1345 44.032 67.5292 43.648 68.0305 43.36C68.5425 43.0613 69.1505 42.8053 69.8545 42.592L70.7345 42.32C71.2145 42.1707 71.6358 41.9893 71.9985 41.776C72.3612 41.552 72.6438 41.2747 72.8465 40.944C73.0492 40.6027 73.1505 40.1867 73.1505 39.696V39.632C73.1505 38.928 72.9052 38.3733 72.4145 37.968C71.9238 37.552 71.2945 37.344 70.5265 37.344C69.7158 37.344 69.0545 37.5627 68.5425 38C68.0305 38.4267 67.7745 39.0773 67.7745 39.952V40.176H66.4945V39.968C66.4945 39.1573 66.6705 38.4693 67.0225 37.904C67.3745 37.3387 67.8545 36.912 68.4625 36.624C69.0705 36.3253 69.7585 36.176 70.5265 36.176C71.2945 36.176 71.9718 36.32 72.5585 36.608C73.1558 36.896 73.6198 37.296 73.9505 37.808C74.2812 38.32 74.4465 38.9173 74.4465 39.6V39.744C74.4465 40.4693 74.3025 41.072 74.0145 41.552C73.7265 42.0213 73.3265 42.4053 72.8145 42.704C72.3132 43.0027 71.7212 43.2587 71.0385 43.472L70.1745 43.744C69.6305 43.9147 69.1772 44.096 68.8145 44.288C68.4625 44.4693 68.1958 44.704 68.0145 44.992C67.8332 45.28 67.7425 45.6693 67.7425 46.16V46.432H74.3505V47.6H66.4305Z" fill="white"/>
<path d="M66.4305 47.6V46.432C66.4305 45.632 66.5692 44.992 66.8465 44.512C67.1345 44.032 67.5292 43.648 68.0305 43.36C68.5425 43.0613 69.1505 42.8053 69.8545 42.592L70.7345 42.32C71.2145 42.1707 71.6358 41.9893 71.9985 41.776C72.3612 41.552 72.6438 41.2747 72.8465 40.944C73.0492 40.6027 73.1505 40.1867 73.1505 39.696V39.632C73.1505 38.928 72.9052 38.3733 72.4145 37.968C71.9238 37.552 71.2945 37.344 70.5265 37.344C69.7158 37.344 69.0545 37.5627 68.5425 38C68.0305 38.4267 67.7745 39.0773 67.7745 39.952V40.176H66.4945V39.968C66.4945 39.1573 66.6705 38.4693 67.0225 37.904C67.3745 37.3387 67.8545 36.912 68.4625 36.624C69.0705 36.3253 69.7585 36.176 70.5265 36.176C71.2945 36.176 71.9718 36.32 72.5585 36.608C73.1558 36.896 73.6198 37.296 73.9505 37.808C74.2812 38.32 74.4465 38.9173 74.4465 39.6V39.744C74.4465 40.4693 74.3025 41.072 74.0145 41.552C73.7265 42.0213 73.3265 42.4053 72.8145 42.704C72.3132 43.0027 71.7212 43.2587 71.0385 43.472L70.1745 43.744C69.6305 43.9147 69.1772 44.096 68.8145 44.288C68.4625 44.4693 68.1958 44.704 68.0145 44.992C67.8332 45.28 67.7425 45.6693 67.7425 46.16V46.432H74.3505V47.6H66.4305Z" fill="url(#paint22_linear_4309_1042)"/>
<path d="M76.0711 47.6V46.432C76.0711 45.632 76.2098 44.992 76.4871 44.512C76.7751 44.032 77.1698 43.648 77.6711 43.36C78.1831 43.0613 78.7911 42.8053 79.4951 42.592L80.3751 42.32C80.8551 42.1707 81.2765 41.9893 81.6391 41.776C82.0018 41.552 82.2845 41.2747 82.4871 40.944C82.6898 40.6027 82.7911 40.1867 82.7911 39.696V39.632C82.7911 38.928 82.5458 38.3733 82.0551 37.968C81.5645 37.552 80.9351 37.344 80.1671 37.344C79.3565 37.344 78.6951 37.5627 78.1831 38C77.6711 38.4267 77.4151 39.0773 77.4151 39.952V40.176H76.1351V39.968C76.1351 39.1573 76.3111 38.4693 76.6631 37.904C77.0151 37.3387 77.4951 36.912 78.1031 36.624C78.7111 36.3253 79.3991 36.176 80.1671 36.176C80.9351 36.176 81.6125 36.32 82.1991 36.608C82.7965 36.896 83.2605 37.296 83.5911 37.808C83.9218 38.32 84.0871 38.9173 84.0871 39.6V39.744C84.0871 40.4693 83.9431 41.072 83.6551 41.552C83.3671 42.0213 82.9671 42.4053 82.4551 42.704C81.9538 43.0027 81.3618 43.2587 80.6791 43.472L79.8151 43.744C79.2711 43.9147 78.8178 44.096 78.4551 44.288C78.1031 44.4693 77.8365 44.704 77.6551 44.992C77.4738 45.28 77.3831 45.6693 77.3831 46.16V46.432H83.9911V47.6H76.0711Z" fill="white"/>
<path d="M76.0711 47.6V46.432C76.0711 45.632 76.2098 44.992 76.4871 44.512C76.7751 44.032 77.1698 43.648 77.6711 43.36C78.1831 43.0613 78.7911 42.8053 79.4951 42.592L80.3751 42.32C80.8551 42.1707 81.2765 41.9893 81.6391 41.776C82.0018 41.552 82.2845 41.2747 82.4871 40.944C82.6898 40.6027 82.7911 40.1867 82.7911 39.696V39.632C82.7911 38.928 82.5458 38.3733 82.0551 37.968C81.5645 37.552 80.9351 37.344 80.1671 37.344C79.3565 37.344 78.6951 37.5627 78.1831 38C77.6711 38.4267 77.4151 39.0773 77.4151 39.952V40.176H76.1351V39.968C76.1351 39.1573 76.3111 38.4693 76.6631 37.904C77.0151 37.3387 77.4951 36.912 78.1031 36.624C78.7111 36.3253 79.3991 36.176 80.1671 36.176C80.9351 36.176 81.6125 36.32 82.1991 36.608C82.7965 36.896 83.2605 37.296 83.5911 37.808C83.9218 38.32 84.0871 38.9173 84.0871 39.6V39.744C84.0871 40.4693 83.9431 41.072 83.6551 41.552C83.3671 42.0213 82.9671 42.4053 82.4551 42.704C81.9538 43.0027 81.3618 43.2587 80.6791 43.472L79.8151 43.744C79.2711 43.9147 78.8178 44.096 78.4551 44.288C78.1031 44.4693 77.8365 44.704 77.6551 44.992C77.4738 45.28 77.3831 45.6693 77.3831 46.16V46.432H83.9911V47.6H76.0711Z" fill="url(#paint23_linear_4309_1042)"/>
<defs>
<linearGradient id="paint0_linear_4309_1042" x1="4.82124" y1="3.28635" x2="178.537" y2="136.504" gradientUnits="userSpaceOnUse">
<stop offset="0.163341" stop-color="#FFFDF9"/>
<stop offset="1" stop-color="#03685D" stop-opacity="0.05"/>
</linearGradient>
<linearGradient id="paint1_linear_4309_1042" x1="4.82124" y1="3.28635" x2="178.537" y2="136.504" gradientUnits="userSpaceOnUse">
<stop offset="0.163341" stop-color="#FFFDF9"/>
<stop offset="1" stop-color="#03685D" stop-opacity="0.05"/>
</linearGradient>
<linearGradient id="paint2_linear_4309_1042" x1="4.82124" y1="3.28635" x2="178.537" y2="136.504" gradientUnits="userSpaceOnUse">
<stop offset="0.163341" stop-color="#FFFDF9"/>
<stop offset="1" stop-color="#03685D" stop-opacity="0.05"/>
</linearGradient>
<linearGradient id="paint3_linear_4309_1042" x1="4.82124" y1="3.28635" x2="178.537" y2="136.504" gradientUnits="userSpaceOnUse">
<stop offset="0.163341" stop-color="#FFFDF9"/>
<stop offset="1" stop-color="#03685D" stop-opacity="0.05"/>
</linearGradient>
<linearGradient id="paint4_linear_4309_1042" x1="4.82124" y1="3.28635" x2="178.537" y2="136.504" gradientUnits="userSpaceOnUse">
<stop offset="0.163341" stop-color="#FFFDF9"/>
<stop offset="1" stop-color="#03685D" stop-opacity="0.05"/>
</linearGradient>
<linearGradient id="paint5_linear_4309_1042" x1="4.82124" y1="3.28635" x2="178.537" y2="136.504" gradientUnits="userSpaceOnUse">
<stop offset="0.163341" stop-color="#FFFDF9"/>
<stop offset="1" stop-color="#03685D" stop-opacity="0.05"/>
</linearGradient>
<linearGradient id="paint6_linear_4309_1042" x1="4.82124" y1="3.28635" x2="178.537" y2="136.504" gradientUnits="userSpaceOnUse">
<stop offset="0.163341" stop-color="#FFFDF9"/>
<stop offset="1" stop-color="#03685D" stop-opacity="0.05"/>
</linearGradient>
<linearGradient id="paint7_linear_4309_1042" x1="4.82124" y1="3.28635" x2="178.537" y2="136.504" gradientUnits="userSpaceOnUse">
<stop offset="0.163341" stop-color="#FFFDF9"/>
<stop offset="1" stop-color="#03685D" stop-opacity="0.05"/>
</linearGradient>
<linearGradient id="paint8_linear_4309_1042" x1="4.82124" y1="3.28635" x2="178.537" y2="136.504" gradientUnits="userSpaceOnUse">
<stop offset="0.163341" stop-color="#FFFDF9"/>
<stop offset="1" stop-color="#03685D" stop-opacity="0.05"/>
</linearGradient>
<linearGradient id="paint9_linear_4309_1042" x1="4.82124" y1="3.28635" x2="178.537" y2="136.504" gradientUnits="userSpaceOnUse">
<stop offset="0.163341" stop-color="#FFFDF9"/>
<stop offset="1" stop-color="#03685D" stop-opacity="0.05"/>
</linearGradient>
<linearGradient id="paint10_linear_4309_1042" x1="4.82124" y1="3.28635" x2="178.537" y2="136.504" gradientUnits="userSpaceOnUse">
<stop offset="0.163341" stop-color="#FFFDF9"/>
<stop offset="1" stop-color="#03685D" stop-opacity="0.05"/>
</linearGradient>
<linearGradient id="paint11_linear_4309_1042" x1="4.82124" y1="3.28635" x2="178.537" y2="136.504" gradientUnits="userSpaceOnUse">
<stop offset="0.163341" stop-color="#FFFDF9"/>
<stop offset="1" stop-color="#03685D" stop-opacity="0.05"/>
</linearGradient>
<linearGradient id="paint12_linear_4309_1042" x1="4.82124" y1="3.28635" x2="178.537" y2="136.504" gradientUnits="userSpaceOnUse">
<stop offset="0.163341" stop-color="#FFFDF9"/>
<stop offset="1" stop-color="#03685D" stop-opacity="0.05"/>
</linearGradient>
<linearGradient id="paint13_linear_4309_1042" x1="4.82124" y1="3.28635" x2="178.537" y2="136.504" gradientUnits="userSpaceOnUse">
<stop offset="0.163341" stop-color="#FFFDF9"/>
<stop offset="1" stop-color="#03685D" stop-opacity="0.05"/>
</linearGradient>
<linearGradient id="paint14_linear_4309_1042" x1="4.82124" y1="3.28635" x2="178.537" y2="136.504" gradientUnits="userSpaceOnUse">
<stop offset="0.163341" stop-color="#FFFDF9"/>
<stop offset="1" stop-color="#03685D" stop-opacity="0.05"/>
</linearGradient>
<linearGradient id="paint15_linear_4309_1042" x1="4.82124" y1="3.28635" x2="178.537" y2="136.504" gradientUnits="userSpaceOnUse">
<stop offset="0.163341" stop-color="#FFFDF9"/>
<stop offset="1" stop-color="#03685D" stop-opacity="0.05"/>
</linearGradient>
<linearGradient id="paint16_linear_4309_1042" x1="4.82124" y1="3.28635" x2="178.537" y2="136.504" gradientUnits="userSpaceOnUse">
<stop offset="0.163341" stop-color="#FFFDF9"/>
<stop offset="1" stop-color="#03685D" stop-opacity="0.05"/>
</linearGradient>
<linearGradient id="paint17_linear_4309_1042" x1="4.82124" y1="3.28635" x2="178.537" y2="136.504" gradientUnits="userSpaceOnUse">
<stop offset="0.163341" stop-color="#FFFDF9"/>
<stop offset="1" stop-color="#03685D" stop-opacity="0.05"/>
</linearGradient>
<linearGradient id="paint18_linear_4309_1042" x1="4.82124" y1="3.28635" x2="178.537" y2="136.504" gradientUnits="userSpaceOnUse">
<stop offset="0.163341" stop-color="#FFFDF9"/>
<stop offset="1" stop-color="#03685D" stop-opacity="0.05"/>
</linearGradient>
<linearGradient id="paint19_linear_4309_1042" x1="4.82124" y1="3.28635" x2="178.537" y2="136.504" gradientUnits="userSpaceOnUse">
<stop offset="0.163341" stop-color="#FFFDF9"/>
<stop offset="1" stop-color="#03685D" stop-opacity="0.05"/>
</linearGradient>
<linearGradient id="paint20_linear_4309_1042" x1="4.82124" y1="3.28635" x2="178.537" y2="136.504" gradientUnits="userSpaceOnUse">
<stop offset="0.163341" stop-color="#FFFDF9"/>
<stop offset="1" stop-color="#03685D" stop-opacity="0.05"/>
</linearGradient>
<linearGradient id="paint21_linear_4309_1042" x1="4.82124" y1="3.28635" x2="178.537" y2="136.504" gradientUnits="userSpaceOnUse">
<stop offset="0.163341" stop-color="#FFFDF9"/>
<stop offset="1" stop-color="#03685D" stop-opacity="0.05"/>
</linearGradient>
<linearGradient id="paint22_linear_4309_1042" x1="4.82124" y1="3.28635" x2="178.537" y2="136.504" gradientUnits="userSpaceOnUse">
<stop offset="0.163341" stop-color="#FFFDF9"/>
<stop offset="1" stop-color="#03685D" stop-opacity="0.05"/>
</linearGradient>
<linearGradient id="paint23_linear_4309_1042" x1="4.82124" y1="3.28635" x2="178.537" y2="136.504" gradientUnits="userSpaceOnUse">
<stop offset="0.163341" stop-color="#FFFDF9"/>
<stop offset="1" stop-color="#03685D" stop-opacity="0.05"/>
</linearGradient>
</defs>
</svg>
