<svg width="1724" height="1734" viewBox="0 0 1724 1734" fill="none" xmlns="http://www.w3.org/2000/svg">
<path d="M4.5978 568.286L863.965 278.054L1723.33 568.286M4.5978 515.607L863.965 174.159L1723.33 515.607M4.5978 462.929L863.965 70.2635L1723.33 462.929M4.5978 620.964L863.965 381.949L1723.33 620.964M4.5978 673.642L863.965 485.845L1723.33 673.642M4.5978 726.317L863.965 589.74L1723.33 726.317M4.5978 778.996L863.965 693.635L1723.33 778.996M4.5978 831.674L863.965 797.531L1723.33 831.674M0 884.262L863.965 901.426C863.965 901.426 1718.91 884 1723.33 884.262M4.5978 937.031L863.965 1005.32L1723.33 937.031M4.5978 989.709L863.965 1109.22L1723.33 989.709M4.5978 1042.39L863.965 1213.11L1723.33 1042.39M4.5978 1095.07L863.965 1317.01L1723.33 1095.07M4.5978 1147.74L863.965 1420.9L1723.33 1147.74M4.5978 1200.42L863.965 1524.8L1723.33 1200.42M4.5978 1253.1L863.965 1628.69L1723.33 1253.1M790.183 37.6439V1695.94M722.396 71.3094V1662.28M659.897 102.35V1631.23M602.094 131.06V1602.52M548.475 157.691V1575.9M498.6 182.46V1551.12M452.092 205.559V1528.03M408.623 227.149V1506.44M367.9 247.374V1486.21M329.676 266.355V1467.23M293.725 284.212V1449.37M259.852 301.036V1432.55M227.878 316.918V1416.67M197.651 331.931V1401.66M169.029 346.144V1387.44M141.889 359.622V1373.96M24.8557 417.748V1315.84M91.6183 384.588V1349M70.4887 395.085V1338.5M47.674 406.417V1327.17M863.965 1V1732.59M863.965 1L4.5978 427.809V1305.78L863.965 1732.59M863.965 1L1723.33 427.809V1305.78L863.965 1732.59M116.122 372.422V1361.17M937.745 37.6439V1695.94M1005.53 71.3094V1662.28M1068.03 102.35V1631.23M1125.84 131.06V1602.52M1179.46 157.691V1575.9M1229.33 182.46V1551.12M1275.84 205.559V1528.03M1319.31 227.149V1506.44M1360.03 247.374V1486.21M1398.25 266.355V1467.23M1434.2 284.212V1449.37M1468.08 301.036V1432.55M1500.05 316.918V1416.67M1530.28 331.931V1401.66M1558.9 346.144V1387.44M1586.04 359.622V1373.96M1703.07 417.748V1315.84M1636.31 384.588V1349M1657.44 395.085V1338.5M1680.26 406.417V1327.17M1611.81 372.422V1361.17" stroke="url(#paint0_linear_3872_9515)" stroke-opacity="0.55" stroke-miterlimit="10"/>
<path d="M4.5978 568.286L863.965 278.054L1723.33 568.286M4.5978 515.607L863.965 174.159L1723.33 515.607M4.5978 462.929L863.965 70.2635L1723.33 462.929M4.5978 620.964L863.965 381.949L1723.33 620.964M4.5978 673.642L863.965 485.845L1723.33 673.642M4.5978 726.317L863.965 589.74L1723.33 726.317M4.5978 778.996L863.965 693.635L1723.33 778.996M4.5978 831.674L863.965 797.531L1723.33 831.674M0 884.262L863.965 901.426C863.965 901.426 1718.91 884 1723.33 884.262M4.5978 937.031L863.965 1005.32L1723.33 937.031M4.5978 989.709L863.965 1109.22L1723.33 989.709M4.5978 1042.39L863.965 1213.11L1723.33 1042.39M4.5978 1095.07L863.965 1317.01L1723.33 1095.07M4.5978 1147.74L863.965 1420.9L1723.33 1147.74M4.5978 1200.42L863.965 1524.8L1723.33 1200.42M4.5978 1253.1L863.965 1628.69L1723.33 1253.1M790.183 37.6439V1695.94M722.396 71.3094V1662.28M659.897 102.35V1631.23M602.094 131.06V1602.52M548.475 157.691V1575.9M498.6 182.46V1551.12M452.092 205.559V1528.03M408.623 227.149V1506.44M367.9 247.374V1486.21M329.676 266.355V1467.23M293.725 284.212V1449.37M259.852 301.036V1432.55M227.878 316.918V1416.67M197.651 331.931V1401.66M169.029 346.144V1387.44M141.889 359.622V1373.96M24.8557 417.748V1315.84M91.6183 384.588V1349M70.4887 395.085V1338.5M47.674 406.417V1327.17M863.965 1V1732.59M863.965 1L4.5978 427.809V1305.78L863.965 1732.59M863.965 1L1723.33 427.809V1305.78L863.965 1732.59M116.122 372.422V1361.17M937.745 37.6439V1695.94M1005.53 71.3094V1662.28M1068.03 102.35V1631.23M1125.84 131.06V1602.52M1179.46 157.691V1575.9M1229.33 182.46V1551.12M1275.84 205.559V1528.03M1319.31 227.149V1506.44M1360.03 247.374V1486.21M1398.25 266.355V1467.23M1434.2 284.212V1449.37M1468.08 301.036V1432.55M1500.05 316.918V1416.67M1530.28 331.931V1401.66M1558.9 346.144V1387.44M1586.04 359.622V1373.96M1703.07 417.748V1315.84M1636.31 384.588V1349M1657.44 395.085V1338.5M1680.26 406.417V1327.17M1611.81 372.422V1361.17" stroke="url(#paint1_linear_3872_9515)" stroke-opacity="0.55" stroke-miterlimit="10"/>
<defs>
<linearGradient id="paint0_linear_3872_9515" x1="861.666" y1="1" x2="861.666" y2="1610.5" gradientUnits="userSpaceOnUse">
<stop offset="0.0123738" stop-color="#848894" stop-opacity="0"/>
<stop offset="1" stop-color="#212533"/>
</linearGradient>
<linearGradient id="paint1_linear_3872_9515" x1="861.667" y1="1" x2="861.667" y2="1732.59" gradientUnits="userSpaceOnUse">
<stop offset="0.0181188" stop-color="#2C3142"/>
<stop offset="0.787003" stop-color="#0A0B12" stop-opacity="0"/>
</linearGradient>
</defs>
</svg>
