<svg width="375" height="456" viewBox="0 0 375 456" fill="none" xmlns="http://www.w3.org/2000/svg">
<path d="M-37.6637 149.672L187.556 73.6094L412.777 149.672M-37.6637 135.866L187.556 46.3809L412.777 135.866M-37.6637 122.061L187.556 19.1523L412.777 122.061M-37.6637 163.478L187.556 100.838L412.777 163.478M-37.6637 177.284L187.556 128.066L412.777 177.284M-37.6637 191.089L187.556 155.295L412.777 191.089M-37.6637 204.894L187.556 182.523L412.777 204.894M-37.6637 218.7L187.556 209.752L412.777 218.7M-38.8687 232.482L187.556 236.981C187.556 236.981 411.616 232.414 412.777 232.482M-37.6637 246.312L187.556 264.209L412.777 246.312M-37.6637 260.117L187.556 291.438L412.777 260.117M-37.6637 273.923L187.556 318.666L412.777 273.923M-37.6637 287.729L187.556 345.895L412.777 287.729M-37.6637 301.534L187.556 373.123L412.777 301.534M-37.6637 315.34L187.556 400.352L412.777 315.34M-37.6637 329.145L187.556 427.58L412.777 329.145M168.22 10.6035V445.205M150.454 19.4264V436.381M134.075 27.5614V428.246M118.926 35.0856V420.722M104.874 42.0651V413.744M91.8027 48.5564V407.251M79.614 54.6102V401.198M68.2219 60.2683V395.54M57.5494 65.5688V390.24M47.5317 70.5434V385.264M38.1099 75.2231V380.585M29.2325 79.6323V376.175M20.8529 83.7947V372.014M12.931 87.7292V368.079M5.42992 91.454V364.354M-1.68286 94.9865V360.821M-32.3545 110.22V345.589M-14.8576 101.53V354.278M-20.3952 104.28V351.528M-26.3744 107.25V348.558M187.556 1V454.809M187.556 1L-37.6637 112.857V342.951L187.556 454.809M187.556 1L412.777 112.857V342.951L187.556 454.809M-8.43587 98.341V357.468M206.892 10.6035V445.205M224.658 19.4264V436.381M241.038 27.5614V428.246M256.187 35.0856V420.722M270.239 42.0651V413.744M283.31 48.5564V407.251M295.498 54.6102V401.198M306.891 60.2683V395.54M317.563 65.5688V390.24M327.58 70.5434V385.264M337.002 75.2231V380.585M345.88 79.6323V376.175M354.26 83.7947V372.014M362.182 87.7292V368.079M369.683 91.454V364.354M376.795 94.9865V360.821M407.466 110.22V345.589M389.97 101.53V354.278M395.507 104.28V351.528M401.487 107.25V348.558M383.549 98.341V357.468" stroke="url(#paint0_linear_3934_5531)" stroke-opacity="0.6" stroke-miterlimit="10"/>
<path d="M-37.6637 149.672L187.556 73.6094L412.777 149.672M-37.6637 135.866L187.556 46.3809L412.777 135.866M-37.6637 122.061L187.556 19.1523L412.777 122.061M-37.6637 163.478L187.556 100.838L412.777 163.478M-37.6637 177.284L187.556 128.066L412.777 177.284M-37.6637 191.089L187.556 155.295L412.777 191.089M-37.6637 204.894L187.556 182.523L412.777 204.894M-37.6637 218.7L187.556 209.752L412.777 218.7M-38.8687 232.482L187.556 236.981C187.556 236.981 411.616 232.414 412.777 232.482M-37.6637 246.312L187.556 264.209L412.777 246.312M-37.6637 260.117L187.556 291.438L412.777 260.117M-37.6637 273.923L187.556 318.666L412.777 273.923M-37.6637 287.729L187.556 345.895L412.777 287.729M-37.6637 301.534L187.556 373.123L412.777 301.534M-37.6637 315.34L187.556 400.352L412.777 315.34M-37.6637 329.145L187.556 427.58L412.777 329.145M168.22 10.6035V445.205M150.454 19.4264V436.381M134.075 27.5614V428.246M118.926 35.0856V420.722M104.874 42.0651V413.744M91.8027 48.5564V407.251M79.614 54.6102V401.198M68.2219 60.2683V395.54M57.5494 65.5688V390.24M47.5317 70.5434V385.264M38.1099 75.2231V380.585M29.2325 79.6323V376.175M20.8529 83.7947V372.014M12.931 87.7292V368.079M5.42992 91.454V364.354M-1.68286 94.9865V360.821M-32.3545 110.22V345.589M-14.8576 101.53V354.278M-20.3952 104.28V351.528M-26.3744 107.25V348.558M187.556 1V454.809M187.556 1L-37.6637 112.857V342.951L187.556 454.809M187.556 1L412.777 112.857V342.951L187.556 454.809M-8.43587 98.341V357.468M206.892 10.6035V445.205M224.658 19.4264V436.381M241.038 27.5614V428.246M256.187 35.0856V420.722M270.239 42.0651V413.744M283.31 48.5564V407.251M295.498 54.6102V401.198M306.891 60.2683V395.54M317.563 65.5688V390.24M327.58 70.5434V385.264M337.002 75.2231V380.585M345.88 79.6323V376.175M354.26 83.7947V372.014M362.182 87.7292V368.079M369.683 91.454V364.354M376.795 94.9865V360.821M407.466 110.22V345.589M389.97 101.53V354.278M395.507 104.28V351.528M401.487 107.25V348.558M383.549 98.341V357.468" stroke="url(#paint1_linear_3934_5531)" stroke-miterlimit="10"/>
<defs>
<linearGradient id="paint0_linear_3934_5531" x1="186.954" y1="1" x2="186.954" y2="454.809" gradientUnits="userSpaceOnUse">
<stop stop-color="#212533" stop-opacity="0"/>
<stop offset="1" stop-color="#212533"/>
</linearGradient>
<linearGradient id="paint1_linear_3934_5531" x1="186.954" y1="1" x2="186.954" y2="454.809" gradientUnits="userSpaceOnUse">
<stop offset="0.0181188" stop-color="#212533"/>
<stop offset="0.787003" stop-color="#212533" stop-opacity="0"/>
</linearGradient>
</defs>
</svg>
