<svg width="45" height="16" viewBox="0 0 45 16" fill="none" xmlns="http://www.w3.org/2000/svg">
<path d="M0 0.5H12.0732V2H0V0.5Z" fill="#05CFB9"/>
<path d="M0 7.25H12.0732V8.75H0V7.25Z" fill="#05CFB9"/>
<path d="M0 2.75H3.29268V4.25H0V2.75Z" fill="#05CFB9"/>
<path d="M8.78047 2.75H12.0732V4.25H8.78047V2.75Z" fill="#05CFB9"/>
<path d="M8.78047 5H12.0732V6.5H8.78047V5Z" fill="#05CFB9"/>
<path d="M0 5H3.29268V6.5H0V5Z" fill="#05CFB9"/>
<path d="M0 9.50001H3.29268V11H0V9.50001Z" fill="#05CFB9"/>
<path d="M0 11.75H3.29268V13.25H0V11.75Z" fill="#05CFB9"/>
<path d="M0 14H3.29268V15.5H0V14Z" fill="#05CFB9"/>
<path d="M16.4634 2.75H19.7561V4.25H16.4634V2.75Z" fill="#05CFB9"/>
<path d="M16.4634 0.5H19.7561V2H16.4634V0.5Z" fill="#05CFB9"/>
<path d="M16.4634 5H19.7561V6.5H16.4634V5Z" fill="#05CFB9"/>
<path d="M16.4634 7.25H19.7561V8.75H16.4634V7.25Z" fill="#05CFB9"/>
<path d="M16.4634 9.50001H19.7561V11H16.4634V9.50001Z" fill="#05CFB9"/>
<path d="M16.4634 11.75H19.7561V13.25H16.4634V11.75Z" fill="#05CFB9"/>
<path d="M32.9268 2.75H37.5V4.25H32.9268V2.75Z" fill="#05CFB9"/>
<path d="M40.4268 11.75H45V13.25H40.4268V11.75Z" fill="#05CFB9"/>
<path d="M32.9268 0.5H36.2195V2H32.9268V0.5Z" fill="#05CFB9"/>
<path d="M41.7073 14H45V15.5H41.7073V14Z" fill="#05CFB9"/>
<path d="M32.9268 14H36.2195V15.5H32.9268V14Z" fill="#05CFB9"/>
<path d="M32.9268 5H36.2195V6.5H32.9268V5Z" fill="#05CFB9"/>
<path d="M37.1342 5H39.1464V6.5H37.1342V5Z" fill="#05CFB9"/>
<path d="M32.9268 7.25H36.2195V8.75H32.9268V7.25Z" fill="#05CFB9"/>
<path d="M38.0488 7.25H40.061V8.75H38.0488V7.25Z" fill="#05CFB9"/>
<path d="M32.9268 9.50001H36.2195V11H32.9268V9.50001Z" fill="#05CFB9"/>
<path d="M38.9634 9.50001H40.9756V11H38.9634V9.50001Z" fill="#05CFB9"/>
<path d="M32.9268 11.75H36.2195V13.25H32.9268V11.75Z" fill="#05CFB9"/>
<path d="M41.7073 2.75H45V4.25H41.7073V2.75Z" fill="#05CFB9"/>
<path d="M41.7073 0.5H45V2H41.7073V0.5Z" fill="#05CFB9"/>
<path d="M41.7073 5H45V6.5H41.7073V5Z" fill="#05CFB9"/>
<path d="M41.7073 7.25H45V8.75H41.7073V7.25Z" fill="#05CFB9"/>
<path d="M41.7073 9.50001H45V11H41.7073V9.50001Z" fill="#05CFB9"/>
<path d="M25.2439 2.75H28.5366V4.25H25.2439V2.75Z" fill="#05CFB9"/>
<path d="M25.2439 0.5H28.5366V2H25.2439V0.5Z" fill="#05CFB9"/>
<path d="M25.2439 5H28.5366V6.5H25.2439V5Z" fill="#05CFB9"/>
<path d="M25.2439 7.25H28.5366V8.75H25.2439V7.25Z" fill="#05CFB9"/>
<path d="M25.2439 9.50001H28.5366V11H25.2439V9.50001Z" fill="#05CFB9"/>
<path d="M25.2439 11.75H28.5366V13.25H25.2439V11.75Z" fill="#05CFB9"/>
<path d="M18.1098 14H21.4025V15.5H18.1098V14Z" fill="#05CFB9"/>
<path d="M20.8537 11.75H24.1463V13.25H20.8537V11.75Z" fill="#05CFB9"/>
<path d="M20.8537 9.50001H24.1463V11H20.8537V9.50001Z" fill="#05CFB9"/>
<path d="M23.5975 14H26.8902V15.5H23.5975V14Z" fill="#05CFB9"/>
</svg>
