<svg width="21" height="17" viewBox="0 0 21 17" fill="none" xmlns="http://www.w3.org/2000/svg">
<path d="M6.79 16.5537C14.337 16.5537 18.465 10.3007 18.465 4.87869C18.465 4.70069 18.465 4.52369 18.453 4.34869C19.2562 3.76722 19.9493 3.0473 20.5 2.22269C19.7511 2.5547 18.9566 2.77245 18.143 2.86869C18.9996 2.35575 19.6408 1.54904 19.947 0.598691C19.1417 1.07658 18.2607 1.41342 17.342 1.59469C16.7234 0.936456 15.905 0.500526 15.0136 0.354396C14.1222 0.208266 13.2075 0.36009 12.4111 0.78636C11.6147 1.21263 10.9811 1.88956 10.6083 2.71235C10.2355 3.53514 10.1444 4.45788 10.349 5.33769C8.71759 5.25593 7.1216 4.83202 5.66465 4.09346C4.20769 3.3549 2.92233 2.31821 1.892 1.05069C1.36732 1.95389 1.20659 3.02311 1.44254 4.04066C1.67848 5.0582 2.29337 5.94757 3.162 6.52769C2.50926 6.5088 1.87063 6.33319 1.3 6.01569V6.06769C1.30039 7.01499 1.6284 7.933 2.2284 8.66605C2.8284 9.3991 3.66347 9.90208 4.592 10.0897C3.98781 10.2544 3.35389 10.2784 2.739 10.1597C3.00116 10.9752 3.51168 11.6883 4.19913 12.1993C4.88658 12.7103 5.71657 12.9937 6.573 13.0097C5.72212 13.6783 4.74779 14.1725 3.70573 14.4642C2.66367 14.7559 1.57432 14.8393 0.5 14.7097C2.3766 15.914 4.56019 16.5528 6.79 16.5497" fill="#AFB9C9"/>
</svg>
